<svg fill="none" height="24" viewBox="0 0 24 24" width="24" xmlns="http://www.w3.org/2000/svg"><path d="m9 13h6m0 0-2-2m2 2-2 2m-.9373-8.93726-.1254-.12548c-.3459-.34591-.5189-.51886-.7207-.64254-.179-.10966-.3741-.19047-.5781-.23946-.2302-.05526-.4748-.05526-.96398-.05526h-3.47452c-1.1201 0-1.68016 0-2.10798.21799-.37633.19174-.68229.4977-.87403.87403-.21799.42782-.21799.98787-.21799 2.10798v7.6c0 1.1201 0 1.6802.21799 2.108.19174.3763.4977.6823.87403.874.42782.218.98787.218 2.10798.218h11.6c1.1201 0 1.6802 0 2.108-.218.3763-.1917.6823-.4977.874-.874.218-.4278.218-.9879.218-2.108v-5.6c0-1.1201 0-1.68016-.218-2.10798-.1917-.37633-.4977-.68229-.874-.87403-.4278-.21799-.9879-.21799-2.108-.21799h-3.4745c-.4892 0-.7338 0-.964-.05526-.204-.04899-.3991-.1298-.5781-.23946-.2018-.12368-.3748-.29663-.7207-.64254z" stroke="#000" stroke-linecap="round" stroke-linejoin="round" stroke-width="2"/></svg>